HIERARCHY
ROOT root
{
	OFFSET	0	13.1	24.9
	CHANNELS 6  Xposition Yposition Zposition Xrotation Yrotation Zrotation
	JOINT spine_1
	{
		OFFSET	0	9.99999	0
		CHANNELS 3  Xrotation Yrotation Zrotation
		JOINT spine_2
		{
			OFFSET	0	112	-10
			CHANNELS 3  Xrotation Yrotation Zrotation
			JOINT spine_3
			{
				OFFSET	0	206.5	19.3
				CHANNELS 3  Xrotation Yrotation Zrotation
				JOINT spine_4
				{
					OFFSET	0	110.4	14.6
					CHANNELS 3  Xrotation Yrotation Zrotation
					JOINT neck_1
					{
						OFFSET	0	71.8	-50.3
						CHANNELS 3  Xrotation Yrotation Zrotation
						JOINT neck_2
						{
							OFFSET	0	86.2	-25.8
							CHANNELS 3  Xrotation Yrotation Zrotation
							JOINT head_ee
							{
								OFFSET	0	179.8	-8.7
								CHANNELS 3  Xrotation Yrotation Zrotation
								End Site
								{
									OFFSET	1	0	0
								}
							}
						}
					}
					JOINT left_clavicle
					{
						OFFSET	-43.2	22.4	-70.8
						CHANNELS 3  Xrotation Yrotation Zrotation
						JOINT left_shoulder
						{
							OFFSET	-93.9	-5.79999	48.7
							CHANNELS 3  Xrotation Yrotation Zrotation
							JOINT left_elbow
							{
								OFFSET	-291.4	-30.8	15.2
								CHANNELS 3  Xrotation Yrotation Zrotation
								JOINT left_lowarm_twist
								{
									OFFSET	-110.7	-3.89999	13.6
									CHANNELS 3  Xrotation Yrotation Zrotation
									JOINT left_hand
									{
										OFFSET	-110.7	-3.89999	13.6
										CHANNELS 3  Xrotation Yrotation Zrotation
										JOINT left_ee
										{
											OFFSET	-80.8	-5.10001	12.1
											CHANNELS 3  Xrotation Yrotation Zrotation
											End Site
											{
												OFFSET	1	0	0
											}
										}
									}
								}
							}
						}
					}
					JOINT right_clavicle
					{
						OFFSET	43.2	22.4	-70.8
						CHANNELS 3  Xrotation Yrotation Zrotation
						JOINT right_shoulder
						{
							OFFSET	93.9	-5.79999	48.7
							CHANNELS 3  Xrotation Yrotation Zrotation
							JOINT right_elbow
							{
								OFFSET	291.4	-30.8	15.2
								CHANNELS 3  Xrotation Yrotation Zrotation
								JOINT right_lowarm_twist
								{
									OFFSET	110.7	-3.89999	13.6
									CHANNELS 3  Xrotation Yrotation Zrotation
									JOINT right_hand
									{
										OFFSET	110.7	-3.89999	13.6
										CHANNELS 3  Xrotation Yrotation Zrotation
										JOINT right_ee
										{
											OFFSET	80.8	-5.10001	12.1
											CHANNELS 3  Xrotation Yrotation Zrotation
											End Site
											{
												OFFSET	1	0	0
											}
										}
									}
								}
							}
						}
					}
				}
			}
		}
	}
	JOINT left_hip
	{
		OFFSET	-82.8	-127.5	0.300001
		CHANNELS 3  Xrotation Yrotation Zrotation
		JOINT left_knee
		{
			OFFSET	-28.2	-396.7	2.2
			CHANNELS 3  Xrotation Yrotation Zrotation
			JOINT left_ankle
			{
				OFFSET	-11.7	-411.3	35.4
				CHANNELS 3  Xrotation Yrotation Zrotation
				JOINT left_toes
				{
					OFFSET	0	-60	-88.6
					CHANNELS 3  Xrotation Yrotation Zrotation
					JOINT left_foot_ee
					{
						OFFSET	-22.5	-16.5	-42.2
						CHANNELS 3  Xrotation Yrotation Zrotation
						End Site
						{
							OFFSET	1	0	0
						}
					}
				}
			}
		}
	}
	JOINT right_hip
	{
		OFFSET	82.8	-127.5	0.300001
		CHANNELS 3  Xrotation Yrotation Zrotation
		JOINT right_knee
		{
			OFFSET	28.2	-396.7	2.2
			CHANNELS 3  Xrotation Yrotation Zrotation
			JOINT right_ankle
			{
				OFFSET	11.7	-411.3	35.4
				CHANNELS 3  Xrotation Yrotation Zrotation
				JOINT right_toes
				{
					OFFSET	0	-60	-88.6
					CHANNELS 3  Xrotation Yrotation Zrotation
					JOINT right_foot_ee
					{
						OFFSET	22.5	-16.5	-42.2
						CHANNELS 3  Xrotation Yrotation Zrotation
						End Site
						{
							OFFSET	1	0	0
						}
					}
				}
			}
		}
	}
}
MOTION
Frames: 9
Frame Time: 0.02
3177.02 653.055 -1669.29 -3.22180238438 17.2240431391 3.48441803414 -0.680153 0.165824 -0.123844 -0.680162 0.173368 -0.113041 -0.680521 0.194121 -0.0717775 -0.680483 0.180349 -0.101535 1.0126 13.2634 1.80823 1.404 22.0163 3.13939 -0.0 0.0 -0.0 9.13291 -3.61963 17.9667 -33.0394 -19.1 64.8067 0.655606 -17.9922 0.103793 9.89779 0.242179 -1.23959 2.0232 21.718 21.0585 -0.0 0.0 -0.0 9.32368 10.5422 -18.3496 1.48201 26.2502 -48.8233 1.5553 37.6098 -0.529645 33.1073 0.0400935 4.17078 1.27468 -3.245 -9.84035 0.0 0.0 0.0 33.7237 -7.90189 -6.39398 -11.3067 0.29794 1.70681 6.30768 24.7144 -0.946863 -36.3649 0.0 0.0 -0.0 0.0 -0.0 -2.6534 18.4343 -4.33977 -31.4238 0.0130994 -4.76246 35.094 0.305861 4.43058 2.6831 -0.0 -0.0 0.0 0.0 0.0 
3151.23849898 658.292 -1689.60814414 -2.85932235439 16.7883434936 3.74897103397 -0.835276 0.0175839 -0.176949 -0.835259 0.028808 -0.175472 -0.835339 0.0674506 -0.164532 -0.835375 0.0406194 -0.173119 3.60724 12.6659 0.249779 4.12744 21.7949 0.996807 -0.0 0.0 -0.0 9.39397 -2.5656 18.491 -32.6345 -19.8454 64.0731 0.667352 -18.2933 0.107451 10.1942 0.246109 -1.27725 1.8743 21.1655 19.9599 -0.0 0.0 -0.0 9.15983 9.86842 -18.0085 -0.920024 25.4288 -48.1487 1.56382 37.7612 -0.534851 33.1549 0.0418838 4.17659 1.36778 -3.19419 -10.4465 0.0 0.0 0.0 32.397 -7.18676 -6.10388 -11.7135 0.302343 1.76907 5.5643 25.4567 -0.840276 -36.1193 0.0 0.0 -0.0 0.0 -0.0 -3.83583 19.272 -3.55459 -31.6743 0.0236955 -4.79943 33.3117 -1.05563 4.24586 2.60276 -0.0 -0.0 0.0 0.0 0.0 
3151.10970609 658.292 -1689.44364596 -2.86487897825 17.1525507467 3.76800839881 -0.835276 0.0175839 -0.176949 -0.835259 0.028808 -0.175472 -0.835339 0.0674506 -0.164532 -0.835375 0.0406194 -0.173119 3.60724 12.6659 0.249779 4.12744 21.7949 0.996807 -0.0 0.0 -0.0 9.39397 -2.5656 18.491 -32.6345 -19.8454 64.0731 0.667352 -18.2933 0.107451 10.1942 0.246109 -1.27725 1.8743 21.1655 19.9599 -0.0 0.0 -0.0 9.15983 9.86842 -18.0085 -0.920024 25.4288 -48.1487 1.56382 37.7612 -0.534851 33.1549 0.0418838 4.17659 1.36778 -3.19419 -10.4465 0.0 0.0 0.0 32.397 -7.18676 -6.10388 -11.7135 0.302343 1.76907 5.5643 25.4567 -0.840276 -36.1193 0.0 0.0 -0.0 0.0 -0.0 -3.83583 19.272 -3.55459 -31.6743 0.0236955 -4.79943 33.3117 -1.05563 4.24586 2.60276 -0.0 -0.0 0.0 0.0 0.0 
3151.01303585 658.292 -1689.31874413 -2.86917123594 17.4278879432 3.78245010002 -0.835276 0.0175839 -0.176949 -0.835259 0.028808 -0.175472 -0.835339 0.0674506 -0.164532 -0.835375 0.0406194 -0.173119 3.60724 12.6659 0.249779 4.12744 21.7949 0.996807 -0.0 0.0 -0.0 9.39397 -2.5656 18.491 -32.6345 -19.8454 64.0731 0.667352 -18.2933 0.107451 10.1942 0.246109 -1.27725 1.8743 21.1655 19.9599 -0.0 0.0 -0.0 9.15983 9.86842 -18.0085 -0.920024 25.4288 -48.1487 1.56382 37.7612 -0.534851 33.1549 0.0418838 4.17659 1.36778 -3.19419 -10.4465 0.0 0.0 0.0 32.397 -7.18676 -6.10388 -11.7135 0.302343 1.76907 5.5643 25.4567 -0.840276 -36.1193 0.0 0.0 -0.0 0.0 -0.0 -3.83583 19.272 -3.55459 -31.6743 0.0236955 -4.79943 33.3117 -1.05563 4.24586 2.60276 -0.0 -0.0 0.0 0.0 0.0 
3115.38325023 662.136 -1721.41167571 -3.06962069849 15.4068243155 4.51113195649 -0.774973 -0.164566 -0.310514 -0.77493 -0.144474 -0.320357 -0.774066 -0.0692691 -0.344533 -0.774211 -0.122812 -0.329269 3.87551 13.3386 -0.507575 4.52407 23.5665 0.114377 -0.0 0.0 -0.0 9.55084 -3.54121 18.8414 -30.367 -19.1944 62.4105 0.697211 -19.0538 0.117011 10.4339 0.249143 -1.30771 1.89773 22.0879 20.3668 -0.0 0.0 -0.0 8.93826 9.4225 -17.5391 -3.54911 24.2992 -49.1255 1.51928 36.9628 -0.507822 32.5773 0.0204678 4.10594 1.45599 -3.19883 -11.0429 0.0 0.0 0.0 31.0254 -6.40552 -6.58934 -15.5915 0.322087 2.36364 5.2254 24.6717 -0.786534 -35.1779 0.0 0.0 -0.0 0.0 -0.0 -3.01957 18.8069 -3.15791 -34.6189 0.160377 -5.23051 34.6238 -1.5318 4.37278 2.71807 -0.0 -0.0 0.0 0.0 0.0 
3093.09273599 674.91 -1762.46600271 0.0480421817115 16.7395576329 3.84344379578 -1.33303 -0.161676 -0.450787 -1.33293 -0.132664 -0.460161 -1.33174 -0.0218755 -0.478403 -1.33205 -0.097155 -0.468944 4.08859 13.9258 3.15 4.57104 21.401 4.28554 -0.0 0.0 -0.0 9.70626 -2.76698 19.149 -28.9488 -19.093 60.1771 0.706817 -19.297 0.120166 7.17357 0.196957 -0.894575 0.667657 20.6546 12.3367 -0.0 0.0 -0.0 8.61059 9.28514 -16.8382 -7.35716 23.1487 -50.4096 1.35246 33.8192 -0.411175 32.1393 0.00470451 4.05222 1.47561 -3.8129 -11.4145 0.0 0.0 0.0 26.8 -5.99328 -6.26882 -21.8456 0.269145 3.32131 4.76474 25.2827 -0.720381 -34.4649 0.0 0.0 -0.0 0.0 -0.0 -1.60439 19.96 -3.03241 -39.9718 0.464971 -5.99433 36.8759 -1.80578 4.58565 2.63979 -0.0 -0.0 0.0 0.0 0.0 
3092.73918749 674.91 -1762.14632863 0.0480975138481 16.957334888 3.84325289109 -1.33303 -0.161676 -0.450787 -1.33293 -0.132664 -0.460161 -1.33174 -0.0218755 -0.478403 -1.33205 -0.097155 -0.468944 4.08859 13.9258 3.15 4.57104 21.401 4.28554 -0.0 0.0 -0.0 9.70626 -2.76698 19.149 -28.9488 -19.093 60.1771 0.706817 -19.297 0.120166 7.17357 0.196957 -0.894575 0.667657 20.6546 12.3367 -0.0 0.0 -0.0 8.61059 9.28514 -16.8382 -7.35716 23.1487 -50.4096 1.35246 33.8192 -0.411175 32.1393 0.00470451 4.05222 1.47561 -3.8129 -11.4145 0.0 0.0 0.0 26.8 -5.99328 -6.26882 -21.8456 0.269145 3.32131 4.76474 25.2827 -0.720381 -34.4649 0.0 0.0 -0.0 0.0 -0.0 -1.60439 19.96 -3.03241 -39.9718 0.464971 -5.99433 36.8759 -1.80578 4.58565 2.63979 -0.0 -0.0 0.0 0.0 0.0 
3092.63814113 674.91 -1762.05451378 0.0481135148288 17.0197150338 3.84319812701 -1.33303 -0.161676 -0.450787 -1.33293 -0.132664 -0.460161 -1.33174 -0.0218755 -0.478403 -1.33205 -0.097155 -0.468944 4.08859 13.9258 3.15 4.57104 21.401 4.28554 -0.0 0.0 -0.0 9.70626 -2.76698 19.149 -28.9488 -19.093 60.1771 0.706817 -19.297 0.120166 7.17357 0.196957 -0.894575 0.667657 20.6546 12.3367 -0.0 0.0 -0.0 8.61059 9.28514 -16.8382 -7.35716 23.1487 -50.4096 1.35246 33.8192 -0.411175 32.1393 0.00470451 4.05222 1.47561 -3.8129 -11.4145 0.0 0.0 0.0 26.8 -5.99328 -6.26882 -21.8456 0.269145 3.32131 4.76474 25.2827 -0.720381 -34.4649 0.0 0.0 -0.0 0.0 -0.0 -1.60439 19.96 -3.03241 -39.9718 0.464971 -5.99433 36.8759 -1.80578 4.58565 2.63979 -0.0 -0.0 0.0 0.0 0.0 
3073.30868166 683.295 -1791.0114182 2.17456187101 20.1732190988 3.37629208578 -1.77795 -0.140323 -0.58251 -1.77777 -0.102972 -0.590258 -1.77649 0.041935 -0.597703 -1.77699 -0.0529857 -0.596825 3.31389 13.8182 4.43686 3.72018 20.2836 5.81573 -0.0 0.0 -0.0 9.58949 1.04988 18.7625 -26.3053 -19.109 56.2322 0.772399 -20.938 0.142725 7.13058 0.196111 -0.889149 0.466557 19.2115 10.6056 -0.0 0.0 -0.0 8.66045 8.01769 -16.9678 -10.507 22.1717 -50.5863 1.16813 30.0551 -0.313613 32.3358 0.011727 4.07634 1.5565 -3.89287 -11.9914 0.0 0.0 0.0 23.6368 -5.22274 -5.10229 -24.7292 0.209608 3.75975 8.93249 25.7469 -1.3382 -32.3191 0.0 0.0 -0.0 0.0 -0.0 -1.28109 19.1951 -3.96498 -44.9806 0.813644 -6.68099 37.3145 -3.1292 4.62091 2.88316 -0.0 -0.0 0.0 0.0 0.0 
